<?xml version="1.0" encoding="UTF-8" standalone="no"?>
<!-- Created with Inkscape (http://www.inkscape.org/) -->

<svg
   xmlns:dc="http://purl.org/dc/elements/1.1/"
   xmlns:cc="http://creativecommons.org/ns#"
   xmlns:rdf="http://www.w3.org/1999/02/22-rdf-syntax-ns#"
   xmlns:svg="http://www.w3.org/2000/svg"
   xmlns="http://www.w3.org/2000/svg"
   xmlns:sodipodi="http://sodipodi.sourceforge.net/DTD/sodipodi-0.dtd"
   xmlns:inkscape="http://www.inkscape.org/namespaces/inkscape"
   width="210mm"
   height="297mm"
   viewBox="0 0 210 297"
   version="1.1"
   id="svg8"
   sodipodi:docname="LaserToolsTechnicsCutter_speedInterpolation_testfile.svg"
   inkscape:version="0.92.1 r15371">
  <defs
     id="defs2" />
  <sodipodi:namedview
     id="base"
     pagecolor="#ffffff"
     bordercolor="#666666"
     borderopacity="1.0"
     inkscape:pageopacity="0.0"
     inkscape:pageshadow="2"
     inkscape:zoom="0.35"
     inkscape:cx="400"
     inkscape:cy="560"
     inkscape:document-units="mm"
     inkscape:current-layer="layer1"
     showgrid="false" />
  <metadata
     id="metadata5">
    <rdf:RDF>
      <cc:Work
         rdf:about="">
        <dc:format>image/svg+xml</dc:format>
        <dc:type
           rdf:resource="http://purl.org/dc/dcmitype/StillImage" />
        <dc:title></dc:title>
      </cc:Work>
    </rdf:RDF>
  </metadata>
  <g
     inkscape:label="Ebene 1"
     inkscape:groupmode="layer"
     id="layer1">
    <path
       style="fill:none;fill-rule:evenodd;stroke:#000000;stroke-width:0.26458332px;stroke-linecap:butt;stroke-linejoin:miter;stroke-opacity:1"
       d="m 40.821427,63.410713 c -5.986005,17.34522 2.05799,27.409542 16.630954,38.553567 3.837498,2.93456 24.738094,16.39807 28.72619,18.14286 12.909997,5.64813 34.017859,3.4371 34.017859,-12.85119 0,-2.01587 1.5171,-4.72016 0,-6.04762 -8.69,-7.603748 -67.977716,-12.351612 -61.232146,10.58334 0.859123,2.92101 1.280324,6.57673 3.779764,8.31547 7.653681,5.3243 78.619042,22.07871 78.619042,9.07143 0,-40.994354 -20.18038,-62.415285 -59.720234,-75.595236 -5.816414,-1.938806 -12.819625,-6.065658 -18.142857,-3.023812 -4.284554,2.448317 6.891078,8.990243 24.946427,23.434524 33.771254,27.017004 68.951354,52.890624 101.297624,81.642854 12.41328,11.03403 15.12996,16.12335 13.60714,16.63095 -7.0851,2.3617 -27.33234,-14.91906 -29.48214,-16.63095 C 147.68376,134.78566 52.143225,49.293671 103.56547,9.738095 c 13.01537,-10.01181688 5.33343,17.258652 5.29167,17.386906 -9.814469,30.144444 -35.207835,53.789518 -42.333332,84.666669 -0.551635,2.39041 -1.263499,14.6887 2.267858,16.63095 12.121962,6.66708 28.612089,7.23289 41.577384,12.85119 5.27745,2.2869 20.87069,8.31547 15.11904,8.31547 -7.41952,0 6.32819,0.33808 -11.33928,-4.53571 -19.634054,-5.41629 -40.118315,-10.57558 -60.476192,-14.36309 -7.94293,-1.47776 -31.98502,-3.63769 -24.190476,-1.51191 30.485492,8.31422 57.390098,21.42679 86.934528,32.50595 9.06412,3.39905 26.50752,4.48653 26.45833,4.53572 -10.86015,10.86015 -28.63978,14.21511 -41.57738,21.92261 -12.850963,7.6559 -24.852051,16.69568 -37.797621,24.19048 -24.708831,14.30511 -1.777129,0.13261 -19.65476,9.07143 -1.007938,0.50397 -4.123883,1.75636 -3.023812,1.51191 33.052683,-7.34505 71.788483,-25.68079 98.273813,-46.86905 1.69133,-1.35307 18.468,-15.6114 13.60714,-21.16667 -3.79827,-4.34088 -86.251398,-0.74867 -93.738096,0 -7.30147,0.73015 -27.9401,3.22535 -21.166666,6.04762 12.7962,5.33175 89.999472,10.70831 103.565472,11.33928 27.32195,1.27079 55.30535,-1.18311 48.38096,-3.77976 -7.48898,-2.80836 -25.72964,-3.02721 -31.75,-3.77976 -32.74043,-4.09255 -65.612248,-9.07081 -98.273812,-13.60714 -7.635935,-1.06055 -15.134706,-2.94753 -22.678572,-4.53571 -2.033341,-0.42808 -7.939283,-0.65206 -6.047618,-1.51191 12.946255,-5.88466 28.160525,-4.12278 42.333333,-5.29167 49.032099,-4.04388 97.694879,-0.25249 146.654759,-3.02381 9.67853,-0.54784 19.15392,-3.00415 28.72619,-4.53571 3.62287,-0.57966 13.86494,-1.38301 10.58333,-3.02381 -7.27581,-3.63791 -50.60561,0 -55.18452,0 -33.2619,0 -66.52381,0 -99.78571,0 -46.534547,0 -35.447688,-2.73466 -75.59524,6.04762 -5.613387,1.22793 -11.179702,2.71863 -16.630952,4.53571 -0.676145,0.22539 -2.1049226,1.11656 -1.511905,1.51191 6.006915,4.00461 95.413437,0 102.809527,0 12.07309,0 62.56505,0.54549 75.59523,-1.51191 18.17414,-2.8696 35.52694,-15.98541 29.48215,-21.16666 -8.5988,-7.3704 -20.94576,-8.69962 -31.75,-12.09524 C 171.89815,101.84163 135.19098,91.49889 120.19643,89.869046 90.901757,86.684844 9.5262164,83.387717 -9.8273808,111.03571 -23.902397,131.14288 44.187924,144.0014 47.624999,145.05357 c 33.908148,10.38005 45.413324,14.59177 80.130951,19.65476 30.85581,4.49981 94.92982,11.81078 97.51786,-34.77381 0.54592,-9.82654 1.07481,-22.77315 -4.53572,-31.749998 C 197.62848,61.209139 130.00239,39.057008 88.446426,48.291667 39.073412,59.263449 29.592315,135.83951 53.672618,170.75595 c 20.666514,29.96644 71.973022,43.93971 105.833332,31.75 29.39475,-10.58211 49.1447,-53.47774 43.84524,-83.15476 -4.62712,-25.911859 -32.3761,-59.38872 -57.45238,-68.035714 -8.15531,-2.812174 -17.15674,-1.8451 -25.70238,-3.023809 C 100.23115,45.537836 86.118061,43.060508 70.303572,58.875001 57.799938,71.378632 56.475121,76.871014 55.184523,93.648809 c -1.526365,19.842751 -1.178988,26.201751 10.583334,43.845241 18.423347,27.63502 91.826923,67.59963 120.196423,35.52976 12.83175,-14.50545 11.33929,-31.80338 11.33929,-49.89286 0,-7.55952 1.58394,-15.28685 0,-22.67857 -1.51191,-7.055555 -5.84446,-13.20082 -9.07143,-19.654761 -13.09857,-26.197137 -26.83777,-43.656332 -57.45238,-45.357142 -6.05924,-0.336624 -13.85172,-2.779231 -18.14286,1.511903 -7.433,7.433006 -10.70696,18.106808 -12.851186,27.970239 -11.053813,50.847531 17.590506,85.255061 57.452376,113.392851 5.15891,3.64159 12.16578,4.60626 16.63096,9.07143 0.71271,0.71272 -2.01588,0 -3.02381,0 -7.01202,0 -12.84931,-2.83435 -19.65477,-4.53571 -19.34198,-4.8355 -50.80578,-26.11549 -47.625,-48.38095 2.54408,-17.80852 47.31665,-24.50593 26.45834,5.29166 -7.6383,10.91186 -17.72197,19.40172 -26.45834,29.48214 -3.07827,3.55186 -15.903438,23.31841 -23.434519,21.16667 -2.95751,-0.845 2.788737,-5.77171 5.291666,-7.55952 10.191589,-7.27971 18.904233,-11.35772 22.678573,-24.19048 5.89061,-20.02806 -7.31489,-51.03582 -18.142858,-27.21428 -6.704745,14.75044 -4.017642,44.6435 0.755952,58.96428 5.383315,16.14995 38.671966,16.21998 46.113096,2.26786 19.57881,-36.71027 -33.39923,-78.13819 -40.82143,-65.76786 -6.012722,10.02121 59.47353,40.35094 68.79167,43.84524 3.77504,1.41564 11.11739,3.91137 12.09524,0 C 180.64931,155.73014 106.22123,105.61174 94.494047,98.184522 82.192258,90.393389 69.493404,81.256917 67.27976,84.577379 c -2.016371,3.024561 80.13617,32.204611 89.20238,34.017861 9.62208,1.92441 21.52085,2.22027 15.875,-9.07143"
       id="path10"
       inkscape:connector-curvature="0" />
    <path
       style="fill:none;fill-rule:evenodd;stroke:#000000;stroke-width:0.26458332px;stroke-linecap:butt;stroke-linejoin:miter;stroke-opacity:1"
       d="M 40.821427,63.410713 C -1.8133295,118.37311 137.92605,101.77927 78.273712,112.22366 121.00099,187.92246 183.01679,45.419954 92.758863,67.924858 92.594977,100.82581 187.88847,130.42168 163.33547,144.72219 113.50445,146.96 98.094701,28.607808 90.963057,49.882409 84.760517,102.01012 45.155402,146.01934 108.95586,163.00308 c 31.70536,18.88573 -55.979946,65.37454 2.22182,38.15423 59.22042,-28.80486 -39.859276,-85.12262 -28.607781,-28.97433 29.287181,6.00854 84.472751,-9.64601 24.401441,-11.24776 -92.468684,-26.54346 40.2093,-26.0606 73.23467,-22.36201 31.6028,1.86556 98.52538,-11.35724 29.47579,-8.89765 -44.79729,-0.5213 -168.484642,26.44499 -151.349112,9.5321 33.238266,7.88897 153.318042,18.60959 109.865272,-37.14928 C 127.63194,81.201119 5.3353995,66.180071 21.418129,129.60116 71.274264,189.57996 264.72269,185.77576 201.2909,78.454156 138.27333,-11.494932 -20.824853,83.438188 59.443973,174.86798 119.58809,263.46932 259.06966,161.84027 183.83565,80.280543 128.88124,-13.121559 -4.9760332,94.079599 87.007411,162.06765 171.99775,249.45837 263.00072,80.706851 151.26452,47.506718 54.438851,26.223341 117.49659,133.06146 126.42649,170.81392 c -34.647518,1.85267 7.58564,-52.09053 -13.3282,-11.61834 -61.748409,-33.34791 -0.19024,92.91546 29.52905,24.35099 15.98395,-34.0632 -54.649636,-42.39031 3.90127,-24.65942 32.27637,-14.75748 -77.056207,-75.12171 2.32361,-42.08666 8.42844,0.90303 16.89683,-2.17141 23.50492,-7.27668"
       id="path12"
       inkscape:connector-curvature="0" />
    <path
       style="fill:none;fill-rule:evenodd;stroke:#000000;stroke-width:0.26458332px;stroke-linecap:butt;stroke-linejoin:miter;stroke-opacity:1"
       d="M 40.821427,63.410713 C 2.9948635,116.4845 121.89142,93.624918 86.469229,123.9537 137.92792,170.73881 165.04568,36.964578 92.758863,67.924858 93.334445,94.657168 212.57493,156.80246 138.76356,134.97778 108.74954,115.90896 93.973048,-2.9775446 82.185796,87.160553 47.842851,134.26479 104.7191,151.68317 114.49409,180.75995 c -39.75398,35.27301 -5.95205,32.11035 15.07012,2.21559 6.25791,-61.94852 -92.712393,-14.78677 -22.37853,-9.78992 81.69856,-6.28273 -98.2638218,-27.41107 -0.3491,-35.62637 36.25603,-4.03768 112.68494,8.37095 122.69968,-8.13102 -55.26597,-6.05578 -125.9539,24.00301 -171.203572,9.77943 C 95.375873,159.9488 229.04482,139.90165 149.58449,94.652288 96.79297,55.639378 -45.628641,108.91991 61.966871,156.3502 112.66472,178.78724 228.21392,177.8084 210.27182,97.373563 184.45293,9.6992768 37.674831,35.077757 37.327295,124.31103 39.317942,210.25697 168.05959,242.65507 200.43637,156.20463 231.81295,78.675875 107.91885,-5.3000854 62.732127,81.684629 23.538248,161.70045 175.09502,236.4647 198.98257,136.11752 246.78882,49.090053 56.717606,2.5792665 104.83092,109.59649 c 16.49475,19.59144 20.76699,91.51839 9.78134,40.92594 19.9419,4.35065 -55.6542,-3.80739 -21.049832,34.05486 22.821092,55.90899 81.431362,-23.35222 29.903192,-34.10746 76.55141,33.33732 -47.625116,-75.059485 25.3866,-33.66934 l 12.43509,-1.38523 11.06983,-5.89145"
       id="path27"
       inkscape:connector-curvature="0" />
    <path
       style="fill:none;fill-rule:evenodd;stroke:#000000;stroke-width:0.26458332px;stroke-linecap:butt;stroke-linejoin:miter;stroke-opacity:1"
       d="M 40.821427,63.410713 C 8.0401783,111.32904 109.08019,94.053601 95.814162,130.69428 168.70193,152.33324 121.58189,14.237171 97.928302,79.376288 118.43293,97.961227 199.82522,166.65443 128.19864,123.75123 111.05192,90.414458 88.88971,15.297622 76.781699,95.65481 52.100796,142.37477 140.19527,170.17942 99.238094,206.30566 175.07747,193.1412 86.53443,117.28772 88.210418,169.63078 169.9167,181.48938 84.250632,140.8441 82.090263,141.19107 125.26921,128.19441 216.2482,149.81187 219.00314,128.69636 173.99781,130.1321 49.574087,138.23595 66.334995,142.62244 108.0483,165.73235 227.75199,127.46201 138.71865,88.39497 78.616098,48.538438 -35.783909,131.87887 72.184271,160.26906 147.8028,207.74593 277.4225,115.68689 172.40577,52.046524 72.423068,-6.1591894 -24.675187,160.51038 94.039045,200.89861 203.80045,249.73157 249.85814,64.099505 134.43318,46.595366 12.505437,28.287314 57.230316,220.35862 162.10424,181.19857 256.01951,145.83735 174.09709,-4.2978337 99.750101,64.846761 90.662691,91.924635 136.2564,188.11463 114.86997,152.35455 c -78.048116,2.16338 30.51146,101.04863 28.87094,15.84414 -16.61236,-28.27546 -21.29253,-6.92723 5.71922,-14.746 -15.64768,-29.78932 -40.76229,-58.637145 7.79982,-37.58879 5.75647,0.37706 10.03638,-4.41063 15.09719,-6.34009"
       id="path30"
       inkscape:connector-curvature="0" />
    <path
       style="fill:none;fill-rule:evenodd;stroke:#000000;stroke-width:0.26458332px;stroke-linecap:butt;stroke-linejoin:miter;stroke-opacity:1"
       d="M 40.821427,63.410713 C 16.935867,106.60663 100.7462,106.00003 108.1093,132.96831 178.22284,131.14343 89.725442,15.390159 108.05386,88.378636 128.2165,103.17782 184.25842,158.65792 128.19864,123.75123 118.34578,79.695358 77.92923,28.407543 73.416576,104.19979 c 5.911584,28.70812 44.560094,108.74148 38.177204,98.9495 63.31426,-24.95334 -54.686303,-73.73065 -9.96358,-31.88748 66.28622,2.15908 -65.295179,-41.51389 8.89299,-34.24051 35.71457,7.19759 161.28677,-8.69056 63.28193,-6.16014 -30.05034,-0.58153 -164.9527767,11.1798 -66.04206,18.53153 55.0855,8.58905 89.66027,-54.823316 19.11761,-67.070598 C 69.74914,48.396647 -23.503269,143.64796 72.184271,160.26906 157.27559,225.41148 279.99669,79.374759 153.7448,43.682478 59.809039,8.2955095 -12.299313,173.04961 94.039045,200.89861 192.09317,252.93129 249.79604,70.68992 144.78416,48.716655 29.140795,9.3035873 44.53696,215.11095 152.45178,184.20587 257.04737,168.07468 178.98782,-9.8649263 99.750101,64.846761 85.903293,108.06258 153.88579,168.19251 88.692688,161.92153 76.065842,223.02 184.47756,201.6571 130.24148,153.15443 172.37697,162.78586 91.752358,81.936143 165.06942,113.5588 l 7.28772,-4.03499"
       id="path33"
       inkscape:connector-curvature="0" />
    <path
       style="fill:none;fill-rule:evenodd;stroke:#000000;stroke-width:0.26458332px;stroke-linecap:butt;stroke-linejoin:miter;stroke-opacity:1"
       d="M 40.821427,63.410713 C 23.570262,111.15575 169.66782,169.656 127.501,82.618464 65.558372,32.611761 128.85224,127.9948 144.25532,132.86035 122.96398,111.54167 81.293207,20.963291 73.416576,104.19979 c 2.727778,30.97307 55.652084,142.23663 51.056194,66.86141 -35.152296,-40.84002 -41.672005,12.55378 -3.92125,-5.26143 -98.979101,-54.54442 93.35905,-12.4705 80.13742,-35.10521 C 160.64952,125.95425 83.884971,138.05565 80.970077,146.46181 145.48344,178.99758 205.50878,86.204936 115.80016,77.424127 42.545383,54.580167 -6.187426,164.3203 88.509896,170.08701 201.96626,222.18813 256.25192,22.308386 119.84795,39.135684 5.6623252,53.306063 28.686513,234.56161 144.1321,208.05914 255.02949,174.14075 181.52899,-10.281878 82.019659,57.605484 1.6523514,144.11181 173.93926,252.51804 202.53614,134.32638 230.84717,44.545813 57.937727,11.727123 107.35603,116.20663 c 43.71423,47.16051 -61.98827,51.99829 3.23458,82.57964 54.95292,-5.28512 22.49463,-45.41569 25.37175,-73.67637 -14.91515,-38.583043 25.1605,-3.8676 36.39478,-15.58609"
       id="path36"
       inkscape:connector-curvature="0" />
    <path
       style="fill:none;fill-rule:evenodd;stroke:#000000;stroke-width:0.26458332px;stroke-linecap:butt;stroke-linejoin:miter;stroke-opacity:1"
       d="M 40.821427,63.410713 C 24.481766,130.31996 186.43488,152.30282 117.31211,74.888399 65.156838,57.394689 187.29065,184.8955 119.9774,100.00121 51.915128,5.9689885 75.007112,200.80702 123.71035,191.09956 138.68764,140.01261 60.686362,167.84969 120.55152,165.79977 17.111934,115.82303 280.82928,146.0897 165.50114,129.97626 125.19849,124.85768 40.5734,157.1058 126.24413,150.6355 229.35952,101.22813 60.940125,28.383587 39.172991,113.02657 26.952772,203.3719 209.51353,198.52462 200.39403,102.23907 200.32475,-8.9779312 15.567164,39.476167 45.878321,138.84973 60.055584,275.25938 265.98849,187.52661 184.42736,79.652691 124.65374,-26.708336 -5.4647595,120.02503 101.41633,172.72768 209.42282,246.40601 247.77666,28.849735 123.21941,52.353376 59.64806,78.753169 156.00626,149.25385 88.716631,179.61364 c 50.344899,56.19767 63.425199,-34.62919 45.060259,-71.56838 12.25015,-6.50026 26.45624,10.25102 38.58025,1.47855"
       id="path39"
       inkscape:connector-curvature="0" />
    <path
       style="fill:none;fill-rule:evenodd;stroke:#000000;stroke-width:0.26458332px;stroke-linecap:butt;stroke-linejoin:miter;stroke-opacity:1"
       d="M 40.821427,63.410713 C 19.443497,139.35124 194.93486,137.88336 109.48664,73.22023 90.216655,96.257781 173.49089,158.94521 119.9774,100.00121 46.066029,6.0238809 86.73053,238.88145 125.41933,175.429 122.53504,147.16366 72.440987,169.37734 120.55152,165.79977 29.714897,116.62424 285.92135,143.44281 148.72921,129.65975 113.38108,125.62491 58.395412,160.04174 126.24413,150.6355 244.71164,74.66578 -25.090422,35.108432 50.29495,153.83072 125.65728,241.38042 275.33661,96.478722 158.42079,41.432937 41.910622,-0.52778245 -5.7031645,203.45041 117.45172,208.50838 241.0806,217.7596 214.19584,10.749737 103.71291,48.465307 -15.849231,99.793738 147.12891,262.12943 195.36951,146.77259 252.43315,58.274653 65.306355,6.0559716 107.36238,114.49851 c 25.20391,36.94094 -46.61507,93.80157 22.57814,76.90651 37.31413,-35.44716 -30.966456,-102.637605 42.41662,-81.88121"
       id="path42"
       inkscape:connector-curvature="0" />
    <path
       style="fill:none;fill-rule:evenodd;stroke:#000000;stroke-width:0.26458332px;stroke-linecap:butt;stroke-linejoin:miter;stroke-opacity:1"
       d="M 40.821427,63.410713 C 18.986158,154.7506 194.94226,108.5828 106.59971,83.402897 c 19.59494,49.823883 46.76414,42.837003 0.83354,2.655525 -73.745455,-34.376964 10.55655,160.592748 9.24313,76.444668 -43.526602,-2.0643 30.10668,12.62983 -15.36712,-11.80965 13.8785,-31.46885 137.49987,-8.15298 47.41995,-21.03369 -45.23575,-11.12542 -76.287286,44.88716 -12.49388,13.96398 C 218.70686,59.838469 -28.267093,55.287898 50.29495,153.83072 132.38127,257.86109 282.89762,59.052021 137.40738,36.338791 5.1001005,23.743449 27.749135,258.86226 156.88792,202.74071 285.31016,138.66159 103.19839,-48.294112 60.810141,101.70206 56.054418,216.78021 240.89662,201.67106 199.77799,89.144966 170.37334,25.296286 60.446429,57.459216 112.73081,129.10214 c -14.036738,30.46925 -19.147974,99.14092 26.73568,47.756 11.28214,-27.78533 -27.52761,-90.012259 32.89065,-67.33433"
       id="path45"
       inkscape:connector-curvature="0" />
    <path
       style="fill:none;fill-rule:evenodd;stroke:#000000;stroke-width:0.26458332px;stroke-linecap:butt;stroke-linejoin:miter;stroke-opacity:1"
       d="M 40.821427,63.410713 C 2.5757124,139.97057 185.86311,119.88087 106.59971,83.402897 146.63158,160.68812 125.3855,65.389821 81.014323,87.558592 57.340609,134.38894 131.0402,210.90665 109.72302,164.98896 83.788767,139.30545 174.85834,138.68071 173.12366,132.971 138.62242,104.38656 60.107297,171.24626 136.23533,143.62373 211.54378,45.979679 -46.607733,73.404455 58.179899,162.71096 159.80365,259.30932 271.95295,16.249277 114.40383,36.748484 -31.716038,67.017434 96.576716,303.64238 191.36939,173.8493 261.85837,56.643109 22.781009,-10.922121 67.102509,138.81784 115.85628,251.41836 282.53424,116.91833 166.41929,58.377326 74.286917,35.583464 103.57349,152.87085 113.95796,195.35902 179.40966,190.42911 96.066195,80.947677 172.35714,109.52381"
       id="path48"
       inkscape:connector-curvature="0" />
    <path
       style="fill:none;fill-rule:evenodd;stroke:#000000;stroke-width:0.26458332px;stroke-linecap:butt;stroke-linejoin:miter;stroke-opacity:1"
       d="M 40.821427,63.410713 C -5.1246134,129.67298 175.48134,127.24623 106.59971,83.402897 168.44154,156.44582 57.0981,26.684387 78.510437,125.87082 c 5.999941,29.86782 44.860063,78.26673 30.421863,24.08303 42.2885,-8.08663 89.38837,-30.21979 17.28516,-18.8905 C 67.324245,188.28062 211.28152,92.555636 117.00309,83.205452 -3.7504184,52.550849 34.709298,216.33257 131.99275,180.89906 264.34754,131.4657 143.42326,-42.770411 59.123662,71.763267 -9.1076018,184.92796 194.07353,275.84558 204.44997,132.55137 200.28161,-3.1450028 -21.646907,65.333347 90.130219,170.09117 189.75776,240.94664 262.43441,31.313061 126.47577,58.913524 c -67.458636,30.361041 11.55231,215.460266 12.61706,80.963126 -8.76309,-22.83357 6.5765,-49.096779 33.26431,-30.35284"
       id="path51"
       inkscape:connector-curvature="0" />
    <path
       style="fill:none;fill-rule:evenodd;stroke:#000000;stroke-width:0.26458332px;stroke-linecap:butt;stroke-linejoin:miter;stroke-opacity:1"
       d="M 40.821427,63.410713 C 5.1124653,143.36476 158.30666,97.828516 116.24023,94.82724 c 27.5922,21.12682 -71.435776,-36.563213 -37.729793,31.04358 20.737041,83.96733 43.199643,13.63711 81.371583,2.22744 -55.75505,-2.31034 -54.9138,46.54345 -14.06098,-10.55472 -2.82605,-92.800326 -178.285805,-2.33883 -74.192843,58.7286 C 199.10156,244.82643 234.18472,-8.9943769 91.886575,41.541463 -50.489969,111.84527 165.27049,302.28336 202.92649,145.3055 233.25469,-0.92905421 -30.429096,66.148487 90.130219,170.09117 197.03655,253.07548 251.38218,1.076276 115.48893,66.303753 64.365225,98.71786 138.75325,257.01851 139.09283,139.87665 127.5741,116.9244 150.90014,90.282918 172.35714,109.52381"
       id="path54"
       inkscape:connector-curvature="0" />
    <path
       style="fill:none;fill-rule:evenodd;stroke:#000000;stroke-width:0.26458332px;stroke-linecap:butt;stroke-linejoin:miter;stroke-opacity:1"
       d="M 40.821427,63.410713 C 5.1505114,151.38531 206.14022,81.459356 74.066159,95.469604 65.802669,164.98011 119.52185,180.11484 159.88202,128.09826 91.121783,137.69839 138.29067,159.38919 143.3785,102.23916 89.566578,17.719878 -25.697766,170.896 94.426005,185.50125 233.39397,213.02235 188.20965,-45.796105 69.256973,56.017102 -43.757918,177.97771 245.95681,278.33057 201.84247,100.12192 c -64.80634,-121.251147 -229.368189,55.97507 -74.35506,86.65986 115.9491,1.7913 60.49007,-208.365171 -25.67627,-103.205651 -30.013925,54.497391 54.91076,153.310321 34.60238,39.169161 1.07955,-17.62032 24.39839,-26.519072 35.94362,-13.22148"
       id="path57"
       inkscape:connector-curvature="0" />
    <path
       style="fill:none;fill-rule:evenodd;stroke:#000000;stroke-width:0.26458332px;stroke-linecap:butt;stroke-linejoin:miter;stroke-opacity:1"
       d="M 40.821427,63.410713 C 3.5479363,142.81437 190.13266,86.272712 74.066159,95.469604 34.65251,184.44823 192.79043,148.84448 139.2225,132.08746 117.49927,159.84555 160.54013,44.490111 83.985038,81.156923 -60.229455,173.16274 221.42306,247.78838 178.56173,92.899636 149.44712,-58.634242 -46.936984,125.62821 90.50023,182.16546 237.1953,276.50891 233.23744,-14.635614 94.617498,75.105111 -28.675083,187.5182 255.61484,232.83565 185.48943,82.461422 110.61425,-33.164315 65.635022,218.02338 139.52639,156.06848 c -6.39374,-23.57493 -3.42322,-70.219705 32.83075,-46.54467"
       id="path60"
       inkscape:connector-curvature="0" />
    <path
       style="fill:none;fill-rule:evenodd;stroke:#000000;stroke-width:0.26458332px;stroke-linecap:butt;stroke-linejoin:miter;stroke-opacity:1"
       d="M 40.821427,63.410713 C 0.67884741,133.61718 175.72156,91.613257 74.066159,95.469604 32.476966,167.27502 188.80436,165.70912 132.38411,118.50309 115.66851,-8.6473055 -34.991569,193.97729 111.31236,182.16382 270.89469,181.2115 122.20392,-73.983809 50.289522,89.120502 -2.4230458,213.92398 257.86391,241.65951 192.9111,94.418547 129.62237,-28.797992 -18.484654,188.6418 137.82698,178.22643 c 139.77677,-5.28938 -15.04086,-222.382966 -34.47604,-63.71482 25.80143,156.73383 18.35388,-44.242775 69.0062,-4.9878"
       id="path63"
       inkscape:connector-curvature="0" />
    <path
       style="fill:none;fill-rule:evenodd;stroke:#000000;stroke-width:0.26458332px;stroke-linecap:butt;stroke-linejoin:miter;stroke-opacity:1"
       d="M 40.821427,63.410713 C 8.1765421,136.94838 162.47666,75.454878 68.48726,108.08007 80.897629,203.71303 204.02727,116.92701 101.46577,76.469775 -29.328225,123.52267 124.4421,251.17287 179.2143,144.2875 214.20929,23.448865 26.285882,0.94283264 43.947601,131.21958 77.636362,264.69842 291.51096,156.30871 165.9622,63.070236 61.739643,20.537853 29.299715,228.38025 160.68782,174.89604 265.92141,140.99543 107.37168,-24.163652 103.35094,114.51161 c 34.00361,147.51014 -8.895986,0.18899 69.0062,-4.9878"
       id="path66"
       inkscape:connector-curvature="0" />
    <path
       style="fill:none;fill-rule:evenodd;stroke:#000000;stroke-width:0.26458332px;stroke-linecap:butt;stroke-linejoin:miter;stroke-opacity:1"
       d="M 40.821427,63.410713 C 1.0478786,123.80466 153.87588,85.300087 68.48726,108.08007 77.038627,204.90481 199.47317,99.818689 101.46577,76.469775 -44.419354,124.87524 173.17451,264.1278 183.26815,122.79588 190.88686,-18.858365 -37.333526,61.5664 64.012236,170.43855 158.39802,270.04161 278.87579,62.54288 130.42333,57.857493 4.9065388,90.847153 123.60639,264.24705 194.81825,144.85132 213.24563,38.625175 50.548725,42.641166 112.8836,156.86116 c 6.4487,67.75052 15.18151,-67.418964 59.47354,-47.33735"
       id="path69"
       inkscape:connector-curvature="0" />
    <path
       style="fill:none;fill-rule:evenodd;stroke:#000000;stroke-width:0.26458332px;stroke-linecap:butt;stroke-linejoin:miter;stroke-opacity:1"
       d="M 40.821427,63.410713 C 15.79603,126.22275 133.89081,75.216566 71.343587,123.93782 119.07056,209.63603 177.91102,35.767633 78.232429,86.519733 -26.025974,188.2224 254.09828,228.27212 176.17452,79.707305 87.363724,-39.132138 -41.781174,182.82179 117.9114,197.43689 271.22671,192.72171 160.97222,-38.148982 77.518472,102.15782 51.773805,250.37512 285.3733,152.93115 160.55563,71.853297 53.980715,30.251003 117.53797,264.56741 145.28555,117.97576 l 12.06393,-9.40471 15.00766,0.95276"
       id="path72"
       inkscape:connector-curvature="0" />
    <path
       style="fill:none;fill-rule:evenodd;stroke:#000000;stroke-width:0.26458332px;stroke-linecap:butt;stroke-linejoin:miter;stroke-opacity:1"
       d="M 40.821427,63.410713 C 29.45965,117.46618 118.02232,83.787097 80.381216,137.08265 161.11628,181.30442 125.10196,5.3351495 63.007205,104.83549 27.350722,237.39419 284.94021,159.1822 159.13019,61.28476 20.986113,-22.819355 4.8731037,271.73616 163.61694,186.23432 271.69017,115.52155 83.621019,-22.107222 75.579716,127.13369 113.52405,281.71417 291.43606,49.17729 117.19334,73.223139 c -49.572192,47.145971 21.14877,146.708151 33.51067,40.528541 5.13137,-8.41959 14.04827,-3.80577 21.65313,-4.22787"
       id="path75"
       inkscape:connector-curvature="0" />
    <path
       style="fill:none;fill-rule:evenodd;stroke:#000000;stroke-width:0.26458332px;stroke-linecap:butt;stroke-linejoin:miter;stroke-opacity:1"
       d="M 40.821427,63.410713 C 44.233054,103.10257 84.313489,178.1386 94.17302,142.91488 184.29928,131.34848 60.157516,12.955049 59.592894,127.26693 102.55182,270.28689 296.45306,58.780794 113.14954,46.013518 -32.767831,75.864163 107.33077,297.96665 191.19275,157.27133 233.19613,12.380571 -17.466121,66.272155 108.44165,177.49957 224.08103,203.88783 195.71646,0.02353375 103.89358,92.855673 c -0.62315,93.209737 14.49443,73.228767 68.46356,16.668137"
       id="path78"
       inkscape:connector-curvature="0" />
    <path
       style="fill:none;fill-rule:evenodd;stroke:#000000;stroke-width:0.26458332px;stroke-linecap:butt;stroke-linejoin:miter;stroke-opacity:1"
       d="M 40.821427,63.410713 C 20.144527,149.30658 160.73604,175.91054 110.89204,87.88655 -24.521842,76.140881 156.43015,269.17465 188.08425,115.04357 182.88791,-37.78249 -47.612394,108.70166 91.171675,191.76844 253.63093,257.93495 182.38139,-38.436211 74.160894,107.03958 73.324108,276.78936 275.51379,91.785688 135.19524,70.922069 65.092103,102.65801 118.21396,217.9454 172.35714,109.52381"
       id="path81"
       inkscape:connector-curvature="0" />
  </g>
</svg>
